<mxfile host="app.diagrams.net" modified="2020-11-22T19:42:35.724Z" agent="5.0 (X11)" etag="3j3rirE7lSZ1n21TWJZN" version="13.10.0" type="github">
  <diagram id="D_8kGG1CDPSpnxjfXd_m" name="Page-1">
    <mxGraphModel dx="1022" dy="695" grid="1" gridSize="10" guides="1" tooltips="1" connect="1" arrows="1" fold="1" page="1" pageScale="1" pageWidth="850" pageHeight="1100" math="0" shadow="0">
      <root>
        <mxCell id="0" />
        <mxCell id="1" parent="0" />
        <mxCell id="yBZyi6kf9quMR-G59hcz-1" value="Admin" style="rounded=0;whiteSpace=wrap;html=1;fontStyle=4" parent="1" vertex="1">
          <mxGeometry x="130" y="40" width="110" height="30" as="geometry" />
        </mxCell>
        <mxCell id="yBZyi6kf9quMR-G59hcz-2" value="&lt;u&gt;Movie&lt;/u&gt;" style="rounded=0;whiteSpace=wrap;html=1;" parent="1" vertex="1">
          <mxGeometry x="320" y="40" width="110" height="30" as="geometry" />
        </mxCell>
        <mxCell id="yBZyi6kf9quMR-G59hcz-3" value="" style="endArrow=none;dashed=1;html=1;dashPattern=1 3;strokeWidth=2;entryX=0.5;entryY=1;entryDx=0;entryDy=0;" parent="1" source="yBZyi6kf9quMR-G59hcz-28" target="yBZyi6kf9quMR-G59hcz-1" edge="1">
          <mxGeometry width="50" height="50" relative="1" as="geometry">
            <mxPoint x="185" y="470" as="sourcePoint" />
            <mxPoint x="190" y="130" as="targetPoint" />
            <Array as="points" />
          </mxGeometry>
        </mxCell>
        <mxCell id="yBZyi6kf9quMR-G59hcz-5" value="" style="endArrow=none;dashed=1;html=1;dashPattern=1 3;strokeWidth=2;entryX=0.5;entryY=1;entryDx=0;entryDy=0;" parent="1" source="yBZyi6kf9quMR-G59hcz-8" edge="1">
          <mxGeometry width="50" height="50" relative="1" as="geometry">
            <mxPoint x="374.5" y="470" as="sourcePoint" />
            <mxPoint x="374.5" y="70" as="targetPoint" />
            <Array as="points" />
          </mxGeometry>
        </mxCell>
        <mxCell id="yBZyi6kf9quMR-G59hcz-6" value="" style="rounded=0;whiteSpace=wrap;html=1;rotation=90;" parent="1" vertex="1">
          <mxGeometry x="164" y="150" width="42.5" height="15" as="geometry" />
        </mxCell>
        <mxCell id="yBZyi6kf9quMR-G59hcz-7" value="" style="rounded=0;whiteSpace=wrap;html=1;rotation=90;" parent="1" vertex="1">
          <mxGeometry x="353" y="210" width="42.5" height="15" as="geometry" />
        </mxCell>
        <mxCell id="yBZyi6kf9quMR-G59hcz-9" value="" style="rounded=0;whiteSpace=wrap;html=1;rotation=90;" parent="1" vertex="1">
          <mxGeometry x="353" y="350" width="42.5" height="15" as="geometry" />
        </mxCell>
        <mxCell id="yBZyi6kf9quMR-G59hcz-10" value="" style="endArrow=none;dashed=1;html=1;dashPattern=1 3;strokeWidth=2;entryX=1;entryY=0.5;entryDx=0;entryDy=0;" parent="1" target="yBZyi6kf9quMR-G59hcz-9" edge="1">
          <mxGeometry width="50" height="50" relative="1" as="geometry">
            <mxPoint x="374" y="490" as="sourcePoint" />
            <mxPoint x="374.5" y="70" as="targetPoint" />
            <Array as="points" />
          </mxGeometry>
        </mxCell>
        <mxCell id="yBZyi6kf9quMR-G59hcz-8" value="" style="rounded=0;whiteSpace=wrap;html=1;rotation=90;" parent="1" vertex="1">
          <mxGeometry x="353" y="280" width="42.5" height="15" as="geometry" />
        </mxCell>
        <mxCell id="yBZyi6kf9quMR-G59hcz-11" value="" style="endArrow=none;dashed=1;html=1;dashPattern=1 3;strokeWidth=2;" parent="1" source="yBZyi6kf9quMR-G59hcz-9" edge="1">
          <mxGeometry width="50" height="50" relative="1" as="geometry">
            <mxPoint x="374.26673228346453" y="366.25" as="sourcePoint" />
            <mxPoint x="373" y="310" as="targetPoint" />
            <Array as="points" />
          </mxGeometry>
        </mxCell>
        <mxCell id="yBZyi6kf9quMR-G59hcz-14" value="" style="endArrow=classic;html=1;entryX=0;entryY=0;entryDx=0;entryDy=0;" parent="1" edge="1" target="yBZyi6kf9quMR-G59hcz-6">
          <mxGeometry width="50" height="50" relative="1" as="geometry">
            <mxPoint x="186" y="100" as="sourcePoint" />
            <mxPoint x="186" y="112" as="targetPoint" />
            <Array as="points">
              <mxPoint x="236" y="100" />
              <mxPoint x="236" y="136" />
            </Array>
          </mxGeometry>
        </mxCell>
        <mxCell id="yBZyi6kf9quMR-G59hcz-15" value="" style="endArrow=classic;html=1;" parent="1" edge="1">
          <mxGeometry width="50" height="50" relative="1" as="geometry">
            <mxPoint x="188" y="207" as="sourcePoint" />
            <mxPoint x="365" y="207" as="targetPoint" />
          </mxGeometry>
        </mxCell>
        <mxCell id="yBZyi6kf9quMR-G59hcz-16" value="" style="endArrow=none;dashed=1;html=1;dashPattern=1 3;strokeWidth=2;entryX=0.747;entryY=0.783;entryDx=0;entryDy=0;entryPerimeter=0;" parent="1" edge="1">
          <mxGeometry width="50" height="50" relative="1" as="geometry">
            <mxPoint x="188" y="226" as="sourcePoint" />
            <mxPoint x="368.0050000000001" y="225.99749999999995" as="targetPoint" />
          </mxGeometry>
        </mxCell>
        <mxCell id="yBZyi6kf9quMR-G59hcz-17" value="" style="endArrow=classic;html=1;" parent="1" edge="1">
          <mxGeometry width="50" height="50" relative="1" as="geometry">
            <mxPoint x="188" y="280" as="sourcePoint" />
            <mxPoint x="366" y="280" as="targetPoint" />
          </mxGeometry>
        </mxCell>
        <mxCell id="yBZyi6kf9quMR-G59hcz-18" value="" style="endArrow=classic;html=1;" parent="1" edge="1">
          <mxGeometry width="50" height="50" relative="1" as="geometry">
            <mxPoint x="188" y="350" as="sourcePoint" />
            <mxPoint x="365" y="350" as="targetPoint" />
          </mxGeometry>
        </mxCell>
        <mxCell id="yBZyi6kf9quMR-G59hcz-19" value="" style="endArrow=none;dashed=1;html=1;dashPattern=1 3;strokeWidth=2;entryX=0.747;entryY=0.783;entryDx=0;entryDy=0;entryPerimeter=0;" parent="1" edge="1">
          <mxGeometry width="50" height="50" relative="1" as="geometry">
            <mxPoint x="190" y="295" as="sourcePoint" />
            <mxPoint x="369.0050000000001" y="294.99749999999995" as="targetPoint" />
          </mxGeometry>
        </mxCell>
        <mxCell id="yBZyi6kf9quMR-G59hcz-20" value="" style="endArrow=none;dashed=1;html=1;dashPattern=1 3;strokeWidth=2;entryX=0.747;entryY=0.783;entryDx=0;entryDy=0;entryPerimeter=0;" parent="1" edge="1">
          <mxGeometry width="50" height="50" relative="1" as="geometry">
            <mxPoint x="190" y="365" as="sourcePoint" />
            <mxPoint x="368.0050000000001" y="364.99749999999995" as="targetPoint" />
          </mxGeometry>
        </mxCell>
        <mxCell id="yBZyi6kf9quMR-G59hcz-21" value="" style="endArrow=classic;html=1;" parent="1" edge="1">
          <mxGeometry width="50" height="50" relative="1" as="geometry">
            <mxPoint x="194.25" y="225" as="sourcePoint" />
            <mxPoint x="184.25" y="225" as="targetPoint" />
          </mxGeometry>
        </mxCell>
        <mxCell id="yBZyi6kf9quMR-G59hcz-22" value="" style="endArrow=classic;html=1;" parent="1" edge="1">
          <mxGeometry width="50" height="50" relative="1" as="geometry">
            <mxPoint x="193" y="295" as="sourcePoint" />
            <mxPoint x="183" y="295" as="targetPoint" />
          </mxGeometry>
        </mxCell>
        <mxCell id="yBZyi6kf9quMR-G59hcz-23" value="" style="endArrow=classic;html=1;" parent="1" edge="1">
          <mxGeometry width="50" height="50" relative="1" as="geometry">
            <mxPoint x="192" y="365" as="sourcePoint" />
            <mxPoint x="182" y="365" as="targetPoint" />
          </mxGeometry>
        </mxCell>
        <mxCell id="yBZyi6kf9quMR-G59hcz-24" value="1:login()" style="text;html=1;strokeColor=none;fillColor=none;align=center;verticalAlign=middle;whiteSpace=wrap;rounded=0;" parent="1" vertex="1">
          <mxGeometry x="240" y="110" width="60" height="20" as="geometry" />
        </mxCell>
        <mxCell id="yBZyi6kf9quMR-G59hcz-26" value="2:AddMovieDetails()" style="text;html=1;strokeColor=none;fillColor=none;align=center;verticalAlign=middle;whiteSpace=wrap;rounded=0;" parent="1" vertex="1">
          <mxGeometry x="260" y="180" width="60" height="20" as="geometry" />
        </mxCell>
        <mxCell id="yBZyi6kf9quMR-G59hcz-27" value="" style="endArrow=classic;html=1;entryX=0;entryY=0;entryDx=0;entryDy=0;" parent="1" target="yBZyi6kf9quMR-G59hcz-28" edge="1">
          <mxGeometry width="50" height="50" relative="1" as="geometry">
            <mxPoint x="190" y="390" as="sourcePoint" />
            <mxPoint x="190" y="416" as="targetPoint" />
            <Array as="points">
              <mxPoint x="240" y="390" />
              <mxPoint x="240" y="426" />
            </Array>
          </mxGeometry>
        </mxCell>
        <mxCell id="yBZyi6kf9quMR-G59hcz-28" value="" style="rounded=0;whiteSpace=wrap;html=1;rotation=90;" parent="1" vertex="1">
          <mxGeometry x="163.75" y="440" width="42.5" height="15" as="geometry" />
        </mxCell>
        <mxCell id="yBZyi6kf9quMR-G59hcz-29" value="" style="endArrow=none;dashed=1;html=1;dashPattern=1 3;strokeWidth=2;" parent="1" edge="1">
          <mxGeometry width="50" height="50" relative="1" as="geometry">
            <mxPoint x="185" y="470" as="sourcePoint" />
            <mxPoint x="185" y="470" as="targetPoint" />
            <Array as="points">
              <mxPoint x="185" y="490" />
            </Array>
          </mxGeometry>
        </mxCell>
        <mxCell id="yBZyi6kf9quMR-G59hcz-30" value="8:logout()" style="text;html=1;strokeColor=none;fillColor=none;align=center;verticalAlign=middle;whiteSpace=wrap;rounded=0;" parent="1" vertex="1">
          <mxGeometry x="240" y="410" width="60" height="20" as="geometry" />
        </mxCell>
        <mxCell id="yBZyi6kf9quMR-G59hcz-31" value="3:return Stutus" style="text;html=1;align=center;verticalAlign=middle;resizable=0;points=[];autosize=1;" parent="1" vertex="1">
          <mxGeometry x="235" y="228" width="90" height="20" as="geometry" />
        </mxCell>
        <mxCell id="yBZyi6kf9quMR-G59hcz-32" value="4:UpdateMovieDetails()" style="text;html=1;strokeColor=none;fillColor=none;align=center;verticalAlign=middle;whiteSpace=wrap;rounded=0;" parent="1" vertex="1">
          <mxGeometry x="250" y="260" width="60" height="20" as="geometry" />
        </mxCell>
        <mxCell id="yBZyi6kf9quMR-G59hcz-33" value="5:return Status" style="text;html=1;strokeColor=none;fillColor=none;align=center;verticalAlign=middle;whiteSpace=wrap;rounded=0;" parent="1" vertex="1">
          <mxGeometry x="235" y="295" width="90" height="20" as="geometry" />
        </mxCell>
        <mxCell id="yBZyi6kf9quMR-G59hcz-34" value="6:DeleteMovieDetails()" style="text;html=1;strokeColor=none;fillColor=none;align=center;verticalAlign=middle;whiteSpace=wrap;rounded=0;" parent="1" vertex="1">
          <mxGeometry x="250" y="330" width="60" height="20" as="geometry" />
        </mxCell>
        <mxCell id="yBZyi6kf9quMR-G59hcz-35" value="7:return void" style="text;html=1;strokeColor=none;fillColor=none;align=center;verticalAlign=middle;whiteSpace=wrap;rounded=0;" parent="1" vertex="1">
          <mxGeometry x="240" y="365" width="80" height="20" as="geometry" />
        </mxCell>
      </root>
    </mxGraphModel>
  </diagram>
</mxfile>
